<svg xmlns="http://www.w3.org/2000/svg" viewBox="0 0 128 128">
  <defs>
    <linearGradient id="bg" x1="0" y1="0" x2="1" y2="1">
      <stop offset="0" stop-color="#1d1d1b"/>
      <stop offset="1" stop-color="#3d3d3b"/>
    </linearGradient>
  </defs>
  <rect width="128" height="128" fill="url(#bg)"/>
  <path fill="#82b140" d="M116.22,102.33C115.06,101.86 111.45,96.69 103.20,83.66C100.32,79.12 100.17,78.38 100.71,71.92C101.24,65.60 101.06,64.70 98.58,60.94C96.14,57.26 87.96,52.06 84.50,52.00C83.95,51.99 81.91,48.95 79.96,45.24C78.01,41.53 74.23,34.36 71.55,29.30C67.47,21.57 66.89,19.84 67.96,18.55C68.67,17.70 69.99,17.00 70.91,17.00C73.07,17.00 81.34,25.68 95.00,42.26C96.06,43.55 102.00,40.93 102.03,39.15C102.06,37.68 102.17,37.69 103.08,39.25C103.64,40.21 104.71,41.00 105.46,41.00C107.89,41.00 105.90,45.00 102.62,46.70C97.79,49.21 101.38,49.49 107.34,47.06C113.41,44.60 118.11,44.01 118.68,45.63C119.14,46.91 112.86,53.74 108.76,56.43C107.25,57.41 106.25,58.60 106.54,59.07C107.35,60.38 111.99,57.89 112.08,56.09C112.13,55.06 112.33,54.94 112.66,55.75C112.94,56.44 113.83,57.00 114.65,57.00C117.10,57.00 115.78,61.32 112.75,63.24C111.24,64.19 110.00,65.61 110.00,66.39C110.00,67.17 112.47,74.15 115.50,81.91C121.22,96.58 122.13,101.35 119.42,102.39C118.55,102.73 117.76,102.96 117.67,102.92C117.58,102.88 116.93,102.61 116.22,102.33Z"/>
  <path fill="#efeff1" d="M60.74,108.41C60.37,108.03 60.05,96.30 60.04,82.33C60.02,59.11 60.17,56.87 61.76,56.22C62.72,55.82 68.22,55.50 74.00,55.50C87.07,55.50 91.23,57.25 94.86,64.31C96.78,68.05 97.11,69.79 96.57,73.39C95.17,82.71 88.41,88.12 77.31,88.83L71.07,89.23L70.78,98.86L70.50,108.50L65.96,108.80C63.47,108.96 61.12,108.78 60.74,108.41ZM8.00,79.77C8.00,74.78 10.03,43.91 10.60,40.20L11.11,36.90L16.77,37.20L22.42,37.50L26.19,49.50C28.27,56.10 30.47,63.52 31.08,65.99L32.20,70.47L37.64,53.74L43.08,37.00L49.04,37.00L55.00,37.00L55.08,42.75C55.12,45.91 55.29,49.23 55.47,50.11C55.64,51.00 56.11,58.77 56.51,67.36L57.24,83.00L53.23,83.00C49.34,83.00 49.20,82.88 48.77,79.25C48.52,77.19 48.21,68.98 48.09,61.01C47.96,53.05 47.75,46.42 47.62,46.28C47.48,46.15 44.69,54.02 41.42,63.77L35.46,81.50L31.83,81.80L28.19,82.11L25.16,72.30C23.49,66.91 21.21,59.17 20.09,55.11C18.96,51.04 17.81,47.48 17.52,47.19C17.24,46.90 17.00,49.37 17.00,52.68C17.00,55.98 16.71,64.16 16.35,70.84L15.69,83.00L11.85,83.00C8.18,83.00 8.00,82.85 8.00,79.77ZM81.97,79.52C85.49,77.70 87.50,72.44 86.09,68.74C84.64,64.93 81.17,63.00 75.78,63.00L71.00,63.00L71.00,72.00L71.00,81.00L75.05,81.00C77.28,81.00 80.39,80.33 81.97,79.52Z"/>
</svg>
